<svg width="320" height="80" viewBox="0 0 320 80" fill="none" xmlns="http://www.w3.org/2000/svg">
<g clip-path="url(#clip0_871_23)">
<rect width="80" height="80" rx="16" fill="#18181B"/>
<path d="M12.5 27.5H19.5V45.5H30.5V27.5H37.5V52.5H12.5V27.5Z" fill="white"/>
<path d="M67.5 27.5L67.5 34.5L49.5 34.5L49.5 52.5L42.5 52.5L42.5 27.5L67.5 27.5Z" fill="white"/>
</g>
<path d="M295.795 62.9496C295.695 62.9496 295.612 62.8829 295.545 62.7496C295.479 62.6496 295.445 62.5163 295.445 62.3496V56.7496C295.445 56.3496 295.629 56.1496 295.995 56.1496C298.129 56.1496 299.662 55.9496 300.595 55.5496C301.529 55.1496 302.095 54.3496 302.295 53.1496C302.329 53.0829 302.329 52.9829 302.295 52.8496L294.245 27.7996C294.212 27.7329 294.195 27.6496 294.195 27.5496C294.195 27.2496 294.379 27.0996 294.745 27.0996H302.295C302.629 27.0996 302.845 27.2663 302.945 27.5996L306.395 42.3996C306.429 42.5329 306.479 42.5996 306.545 42.5996C306.612 42.5996 306.662 42.5329 306.695 42.3996L310.145 27.5996C310.245 27.2663 310.462 27.0996 310.795 27.0996H318.195C318.395 27.0996 318.545 27.1663 318.645 27.2996C318.745 27.3996 318.762 27.5663 318.695 27.7996L310.245 53.4996C309.412 55.9996 308.529 57.8829 307.595 59.1496C306.695 60.4496 305.362 61.3996 303.595 61.9996C301.862 62.6329 299.379 62.9496 296.145 62.9496H295.795Z" fill="#18181B"/>
<path d="M290.569 26.8008C291.769 26.8008 292.702 27.0174 293.369 27.4508C293.636 27.6174 293.736 27.8674 293.669 28.2008L292.519 35.1508C292.486 35.5508 292.252 35.6675 291.819 35.5008C291.219 35.3675 290.652 35.3008 290.119 35.3008C289.552 35.3008 289.119 35.3341 288.819 35.4008C287.786 35.5341 286.902 35.9341 286.169 36.6008C285.469 37.2674 285.119 38.1508 285.119 39.2508V52.4008C285.119 52.5675 285.052 52.7174 284.919 52.8508C284.819 52.9508 284.686 53.0008 284.519 53.0008H277.419C277.252 53.0008 277.102 52.9508 276.969 52.8508C276.869 52.7174 276.819 52.5675 276.819 52.4008V27.7508C276.819 27.5841 276.869 27.4508 276.969 27.3508C277.102 27.2174 277.252 27.1508 277.419 27.1508H284.519C284.686 27.1508 284.819 27.2174 284.919 27.3508C285.052 27.4508 285.119 27.5841 285.119 27.7508V29.3508C285.119 29.4508 285.152 29.5174 285.219 29.5508C285.286 29.5841 285.336 29.5508 285.369 29.4508C286.702 27.6841 288.436 26.8008 290.569 26.8008Z" fill="#18181B"/>
<path d="M274.482 33.2C274.482 33.3667 274.415 33.5167 274.282 33.65C274.182 33.75 274.048 33.8 273.882 33.8H269.332C269.165 33.8 269.082 33.8833 269.082 34.05V43.15C269.082 45.05 269.848 46 271.382 46H273.232C273.398 46 273.532 46.0667 273.632 46.2C273.765 46.3 273.832 46.4333 273.832 46.6V52.4C273.832 52.7667 273.632 52.9833 273.232 53.05C271.632 53.1167 270.465 53.15 269.732 53.15C266.832 53.15 264.682 52.7 263.282 51.8C261.882 50.8667 261.165 49.1167 261.132 46.55V34.05C261.132 33.8833 261.048 33.8 260.882 33.8H258.032C257.865 33.8 257.715 33.75 257.582 33.65C257.482 33.5167 257.432 33.3667 257.432 33.2V27.75C257.432 27.5833 257.482 27.45 257.582 27.35C257.715 27.2167 257.865 27.15 258.032 27.15H260.882C261.048 27.15 261.132 27.0667 261.132 26.9V20.85C261.132 20.6833 261.182 20.55 261.282 20.45C261.415 20.3167 261.565 20.25 261.732 20.25H268.482C268.648 20.25 268.782 20.3167 268.882 20.45C269.015 20.55 269.082 20.6833 269.082 20.85V26.9C269.082 27.0667 269.165 27.15 269.332 27.15H273.882C274.048 27.15 274.182 27.2167 274.282 27.35C274.415 27.45 274.482 27.5833 274.482 27.75V33.2Z" fill="#18181B"/>
<path d="M245.092 53.4C242.725 53.4 240.659 53.0833 238.892 52.45C237.125 51.7833 235.759 50.8667 234.792 49.7C233.859 48.5 233.392 47.1333 233.392 45.6V45.05C233.392 44.8833 233.442 44.75 233.542 44.65C233.675 44.5167 233.825 44.45 233.992 44.45H240.742C240.909 44.45 241.042 44.5167 241.142 44.65C241.275 44.75 241.342 44.8833 241.342 45.05C241.342 45.6833 241.692 46.2167 242.392 46.65C243.092 47.05 243.975 47.25 245.042 47.25C245.975 47.25 246.709 47.1 247.242 46.8C247.809 46.4667 248.092 46.0333 248.092 45.5C248.092 44.9667 247.792 44.5833 247.192 44.35C246.625 44.0833 245.692 43.8333 244.392 43.6C242.292 43.2 240.592 42.7167 239.292 42.15C237.592 41.45 236.242 40.5833 235.242 39.55C234.242 38.4833 233.742 37.0333 233.742 35.2C233.742 32.6 234.742 30.55 236.742 29.05C238.775 27.5167 241.442 26.75 244.742 26.75C246.975 26.75 248.925 27.1167 250.592 27.85C252.292 28.55 253.609 29.55 254.542 30.85C255.475 32.15 255.942 33.65 255.942 35.35C255.942 35.5167 255.875 35.6667 255.742 35.8C255.642 35.9 255.509 35.95 255.342 35.95H248.792C248.625 35.95 248.475 35.9 248.342 35.8C248.242 35.6667 248.192 35.5167 248.192 35.35C248.192 34.7167 247.892 34.2 247.292 33.8C246.692 33.4 245.875 33.2 244.842 33.2C243.909 33.2 243.142 33.3667 242.542 33.7C241.975 34 241.692 34.4333 241.692 35C241.692 35.5667 242.009 35.9833 242.642 36.25C243.275 36.4833 244.342 36.75 245.842 37.05C247.775 37.45 249.125 37.7667 249.892 38C251.959 38.6667 253.559 39.5667 254.692 40.7C255.859 41.8333 256.442 43.35 256.442 45.25C256.442 47.85 255.409 49.8667 253.342 51.3C251.309 52.7 248.559 53.4 245.092 53.4Z" fill="#18181B"/>
<path d="M226.697 24.8504C225.43 24.8504 224.38 24.4504 223.547 23.6504C222.747 22.8171 222.347 21.7671 222.347 20.5004C222.347 19.2004 222.747 18.1504 223.547 17.3504C224.38 16.5504 225.43 16.1504 226.697 16.1504C227.963 16.1504 228.997 16.5504 229.797 17.3504C230.63 18.1504 231.047 19.2004 231.047 20.5004C231.047 21.7337 230.63 22.7671 229.797 23.6004C228.997 24.4337 227.963 24.8504 226.697 24.8504ZM223.097 53.0004C222.93 53.0004 222.78 52.9504 222.647 52.8504C222.547 52.7171 222.497 52.5671 222.497 52.4004V27.7504C222.497 27.5837 222.547 27.4504 222.647 27.3504C222.78 27.2171 222.93 27.1504 223.097 27.1504H230.197C230.363 27.1504 230.497 27.2171 230.597 27.3504C230.73 27.4504 230.797 27.5837 230.797 27.7504V52.4004C230.797 52.5671 230.73 52.7171 230.597 52.8504C230.497 52.9504 230.363 53.0004 230.197 53.0004H223.097Z" fill="#18181B"/>
<path d="M210.923 27.75C210.923 27.5833 210.973 27.45 211.073 27.35C211.207 27.2167 211.357 27.15 211.523 27.15H218.623C218.79 27.15 218.923 27.2167 219.023 27.35C219.157 27.45 219.223 27.5833 219.223 27.75V50.1C219.223 54.6667 217.907 57.9333 215.273 59.9C212.64 61.8667 209.307 62.85 205.273 62.85C203.773 62.85 202.19 62.7167 200.523 62.45C200.19 62.4167 200.023 62.2 200.023 61.8L200.273 55.6C200.273 55.3667 200.34 55.2 200.473 55.1C200.607 55.0333 200.773 55.0333 200.973 55.1C202.34 55.4 203.607 55.55 204.773 55.55C206.673 55.55 208.173 55.1167 209.273 54.25C210.373 53.3833 210.923 52.0167 210.923 50.15L210.573 50.5C209.373 51.7 207.64 52.3 205.373 52.3C203.173 52.3 201.157 51.8167 199.323 50.85C197.49 49.8833 196.173 48.1833 195.373 45.75C194.84 44.15 194.573 42.1833 194.573 39.85C194.573 37.2833 194.89 35.1833 195.523 33.55C196.29 31.4833 197.507 29.8333 199.173 28.6C200.873 27.3667 202.84 26.75 205.073 26.75C207.473 26.75 209.323 27.4833 210.623 28.95C210.69 29.0167 210.757 29.05 210.823 29.05C210.89 29.0167 210.923 28.95 210.923 28.85V27.75ZM210.473 43.55C210.773 42.7833 210.923 41.5333 210.923 39.8C210.923 38.9 210.89 38.2 210.823 37.7C210.757 37.1667 210.623 36.6667 210.423 36.2C210.157 35.4667 209.723 34.9 209.123 34.5C208.557 34.0667 207.857 33.85 207.023 33.85C205.457 33.85 204.34 34.6333 203.673 36.2C203.173 37.1333 202.923 38.3667 202.923 39.9C202.923 41.5333 203.14 42.7333 203.573 43.5C203.873 44.2 204.323 44.7667 204.923 45.2C205.523 45.6333 206.24 45.85 207.073 45.85C208.773 45.85 209.907 45.0833 210.473 43.55Z" fill="#18181B"/>
<path d="M192.683 37.7992C192.849 38.7992 192.899 40.1159 192.833 41.7492C192.799 42.1492 192.583 42.3492 192.183 42.3492H176.933C176.866 42.3492 176.799 42.3826 176.733 42.4492C176.666 42.4826 176.649 42.5326 176.683 42.5992C176.749 42.9659 176.916 43.4492 177.183 44.0492C177.583 44.7492 178.183 45.3159 178.983 45.7492C179.783 46.1826 180.766 46.3992 181.933 46.3992C184.033 46.3992 185.683 45.7159 186.883 44.3492C187.016 44.1826 187.166 44.0992 187.333 44.0992C187.499 44.0992 187.633 44.1659 187.733 44.2992L191.583 48.6992C191.716 48.7992 191.783 48.9326 191.783 49.0992C191.783 49.2326 191.716 49.3659 191.583 49.4992C190.416 50.7659 188.966 51.7326 187.233 52.3992C185.533 53.0659 183.666 53.3992 181.633 53.3992C178.599 53.3992 176.016 52.7492 173.883 51.4492C171.783 50.1159 170.266 48.2659 169.333 45.8992C168.633 44.2326 168.283 42.1492 168.283 39.6492C168.283 37.9159 168.549 36.2492 169.083 34.6492C169.949 32.1826 171.366 30.2492 173.333 28.8492C175.333 27.4159 177.699 26.6992 180.433 26.6992C182.633 26.6992 184.599 27.1826 186.333 28.1492C188.066 29.0826 189.466 30.3992 190.533 32.0992C191.633 33.7659 192.349 35.6659 192.683 37.7992ZM180.433 33.8492C178.699 33.8492 177.549 34.6659 176.983 36.2992C176.849 36.6659 176.766 37.0159 176.733 37.3492C176.666 37.5159 176.733 37.5992 176.933 37.5992H184.033C184.166 37.5992 184.233 37.5326 184.233 37.3992C184.233 37.1326 184.166 36.7992 184.033 36.3992C183.799 35.5659 183.366 34.9326 182.733 34.4992C182.133 34.0659 181.366 33.8492 180.433 33.8492Z" fill="#18181B"/>
<path d="M164.782 26.8008C165.982 26.8008 166.915 27.0174 167.582 27.4508C167.848 27.6174 167.948 27.8674 167.882 28.2008L166.732 35.1508C166.698 35.5508 166.465 35.6675 166.032 35.5008C165.432 35.3675 164.865 35.3008 164.332 35.3008C163.765 35.3008 163.332 35.3341 163.032 35.4008C161.998 35.5341 161.115 35.9341 160.382 36.6008C159.682 37.2674 159.332 38.1508 159.332 39.2508V52.4008C159.332 52.5675 159.265 52.7174 159.132 52.8508C159.032 52.9508 158.898 53.0008 158.732 53.0008H151.632C151.465 53.0008 151.315 52.9508 151.182 52.8508C151.082 52.7174 151.032 52.5675 151.032 52.4008V27.7508C151.032 27.5841 151.082 27.4508 151.182 27.3508C151.315 27.2174 151.465 27.1508 151.632 27.1508H158.732C158.898 27.1508 159.032 27.2174 159.132 27.3508C159.265 27.4508 159.332 27.5841 159.332 27.7508V29.3508C159.332 29.4508 159.365 29.5174 159.432 29.5508C159.498 29.5841 159.548 29.5508 159.582 29.4508C160.915 27.6841 162.648 26.8008 164.782 26.8008Z" fill="#18181B"/>
<path d="M139.092 26.75C141.692 26.75 143.825 27.5833 145.492 29.25C147.158 30.8833 147.992 33.1167 147.992 35.95V52.4C147.992 52.5667 147.925 52.7167 147.792 52.85C147.692 52.95 147.558 53 147.392 53H140.292C140.125 53 139.975 52.95 139.842 52.85C139.742 52.7167 139.692 52.5667 139.692 52.4V37.75C139.692 36.6167 139.375 35.6833 138.742 34.95C138.108 34.2167 137.292 33.85 136.292 33.85C135.258 33.85 134.425 34.2167 133.792 34.95C133.158 35.65 132.842 36.5833 132.842 37.75V52.4C132.842 52.5667 132.775 52.7167 132.642 52.85C132.542 52.95 132.408 53 132.242 53H125.142C124.975 53 124.825 52.95 124.692 52.85C124.592 52.7167 124.542 52.5667 124.542 52.4V27.75C124.542 27.5833 124.592 27.45 124.692 27.35C124.825 27.2167 124.975 27.15 125.142 27.15H132.242C132.408 27.15 132.542 27.2167 132.642 27.35C132.775 27.45 132.842 27.5833 132.842 27.75V29.6C132.842 29.7333 132.858 29.8167 132.892 29.85C132.958 29.85 133.025 29.8 133.092 29.7C134.358 27.7333 136.358 26.75 139.092 26.75Z" fill="#18181B"/>
<path d="M113.05 27.7504C113.05 27.5837 113.1 27.4504 113.2 27.3504C113.334 27.2171 113.484 27.1504 113.65 27.1504H120.75C120.917 27.1504 121.05 27.2171 121.15 27.3504C121.284 27.4504 121.35 27.5837 121.35 27.7504V52.4004C121.35 52.5671 121.284 52.7171 121.15 52.8504C121.05 52.9504 120.917 53.0004 120.75 53.0004H113.65C113.484 53.0004 113.334 52.9504 113.2 52.8504C113.1 52.7171 113.05 52.5671 113.05 52.4004V50.6504C113.05 50.5504 113.017 50.4837 112.95 50.4504C112.884 50.4171 112.817 50.4504 112.75 50.5504C111.417 52.4504 109.317 53.4004 106.45 53.4004C103.917 53.4004 101.867 52.6004 100.3 51.0004C98.7335 49.4004 97.9502 47.1671 97.9502 44.3004V27.7504C97.9502 27.5837 98.0002 27.4504 98.1002 27.3504C98.2335 27.2171 98.3835 27.1504 98.5502 27.1504H105.65C105.817 27.1504 105.95 27.2171 106.05 27.3504C106.184 27.4504 106.25 27.5837 106.25 27.7504V42.4004C106.25 43.5671 106.55 44.5004 107.15 45.2004C107.75 45.9004 108.567 46.2504 109.6 46.2504C110.534 46.2504 111.3 45.9671 111.9 45.4004C112.534 44.8337 112.917 44.0837 113.05 43.1504V27.7504Z" fill="#18181B"/>
<defs>
<clipPath id="clip0_871_23">
<rect width="80" height="80" rx="16" fill="white"/>
</clipPath>
</defs>
</svg>
